<svg width="363" height="137" viewBox="0 0 363 137" fill="none" xmlns="http://www.w3.org/2000/svg">
<path d="M19.5859 122.33C19.2871 124.887 18.3408 126.862 16.7471 128.257C15.1644 129.64 13.056 130.332 10.4219 130.332C7.56641 130.332 5.27539 129.308 3.54883 127.261C1.83333 125.213 0.975586 122.474 0.975586 119.043V116.719C0.975586 114.472 1.37402 112.496 2.1709 110.792C2.97884 109.088 4.11882 107.782 5.59082 106.874C7.06283 105.955 8.76725 105.496 10.7041 105.496C13.2718 105.496 15.3304 106.215 16.8799 107.654C18.4294 109.082 19.3314 111.063 19.5859 113.598H16.3818C16.1051 111.672 15.502 110.277 14.5723 109.414C13.6536 108.551 12.3643 108.119 10.7041 108.119C8.66764 108.119 7.06836 108.872 5.90625 110.377C4.75521 111.882 4.17969 114.024 4.17969 116.802V119.143C4.17969 121.766 4.72754 123.852 5.82324 125.401C6.91895 126.951 8.45182 127.726 10.4219 127.726C12.1927 127.726 13.5485 127.327 14.4893 126.53C15.4411 125.722 16.0719 124.322 16.3818 122.33H19.5859ZM42.6309 118.694C42.6309 121.063 42.2325 123.132 41.4356 124.903C40.6387 126.663 39.5098 128.008 38.0489 128.938C36.5879 129.867 34.8835 130.332 32.9356 130.332C31.0319 130.332 29.3441 129.867 27.8721 128.938C26.4001 127.997 25.2546 126.663 24.4356 124.937C23.6276 123.199 23.2126 121.19 23.1905 118.91V117.167C23.1905 114.843 23.5944 112.79 24.4024 111.008C25.2103 109.226 26.3503 107.865 27.8223 106.924C29.3054 105.972 30.9987 105.496 32.9024 105.496C34.8392 105.496 36.5437 105.966 38.0157 106.907C39.4987 107.837 40.6387 109.193 41.4356 110.975C42.2325 112.745 42.6309 114.81 42.6309 117.167V118.694ZM39.46 117.134C39.46 114.267 38.8845 112.07 37.7334 110.543C36.5824 109.005 34.972 108.235 32.9024 108.235C30.8881 108.235 29.2998 109.005 28.1377 110.543C26.9867 112.07 26.3946 114.195 26.3614 116.918V118.694C26.3614 121.472 26.9424 123.658 28.1045 125.252C29.2777 126.835 30.8881 127.626 32.9356 127.626C34.9942 127.626 36.5879 126.879 37.7168 125.385C38.8457 123.88 39.4268 121.727 39.46 118.927V117.134ZM55.1339 125.767L62.0401 105.828H65.5264L56.5616 130H53.7393L44.7911 105.828H48.2608L55.1339 125.767ZM72.2853 130H69.0978V105.828H72.2853V130ZM78.214 130V105.828H85.0373C87.1401 105.828 88.9995 106.293 90.6154 107.223C92.2313 108.152 93.4764 109.475 94.3507 111.19C95.2362 112.906 95.6844 114.876 95.6955 117.101V118.645C95.6955 120.924 95.2528 122.922 94.3673 124.638C93.493 126.353 92.2368 127.67 90.5988 128.589C88.9718 129.507 87.0737 129.978 84.9044 130H78.214ZM81.4015 108.451V127.394H84.755C87.2121 127.394 89.1212 126.63 90.4826 125.103C91.855 123.575 92.5412 121.4 92.5412 118.578V117.167C92.5412 114.422 91.8937 112.292 90.5988 110.775C89.3149 109.248 87.4888 108.473 85.1203 108.451H81.4015ZM126.91 122.33C126.612 124.887 125.665 126.862 124.072 128.257C122.489 129.64 120.38 130.332 117.746 130.332C114.891 130.332 112.6 129.308 110.873 127.261C109.158 125.213 108.3 122.474 108.3 119.043V116.719C108.3 114.472 108.698 112.496 109.495 110.792C110.303 109.088 111.443 107.782 112.915 106.874C114.387 105.955 116.092 105.496 118.029 105.496C120.596 105.496 122.655 106.215 124.204 107.654C125.754 109.082 126.656 111.063 126.91 113.598H123.706C123.43 111.672 122.826 110.277 121.897 109.414C120.978 108.551 119.689 108.119 118.029 108.119C115.992 108.119 114.393 108.872 113.231 110.377C112.08 111.882 111.504 114.024 111.504 116.802V119.143C111.504 121.766 112.052 123.852 113.148 125.401C114.243 126.951 115.776 127.726 117.746 127.726C119.517 127.726 120.873 127.327 121.814 126.53C122.766 125.722 123.396 124.322 123.706 122.33H126.91ZM130.067 120.853C130.067 119.093 130.41 117.51 131.096 116.104C131.793 114.699 132.756 113.614 133.985 112.851C135.224 112.087 136.635 111.705 138.218 111.705C140.664 111.705 142.64 112.552 144.145 114.245C145.661 115.938 146.419 118.191 146.419 121.002V121.218C146.419 122.966 146.082 124.538 145.407 125.933C144.742 127.316 143.785 128.395 142.534 129.17C141.295 129.945 139.867 130.332 138.251 130.332C135.816 130.332 133.841 129.485 132.324 127.792C130.819 126.099 130.067 123.857 130.067 121.068V120.853ZM133.155 121.218C133.155 123.21 133.614 124.809 134.533 126.016C135.462 127.222 136.702 127.825 138.251 127.825C139.812 127.825 141.051 127.216 141.97 125.999C142.889 124.771 143.348 123.055 143.348 120.853C143.348 118.882 142.878 117.289 141.937 116.071C141.007 114.843 139.768 114.229 138.218 114.229C136.702 114.229 135.479 114.832 134.549 116.038C133.619 117.244 133.155 118.971 133.155 121.218ZM153.244 112.037L153.327 114.029C154.645 112.48 156.421 111.705 158.657 111.705C161.169 111.705 162.879 112.668 163.786 114.594C164.384 113.73 165.159 113.033 166.111 112.502C167.074 111.971 168.208 111.705 169.514 111.705C173.454 111.705 175.457 113.791 175.524 117.964V130H172.452V118.146C172.452 116.863 172.159 115.905 171.573 115.274C170.986 114.632 170.001 114.312 168.617 114.312C167.478 114.312 166.531 114.655 165.779 115.341C165.026 116.016 164.589 116.929 164.467 118.08V130H161.379V118.229C161.379 115.618 160.101 114.312 157.544 114.312C155.53 114.312 154.152 115.169 153.41 116.885V130H150.339V112.037H153.244ZM195.431 121.218C195.431 123.951 194.806 126.154 193.555 127.825C192.304 129.496 190.611 130.332 188.475 130.332C186.295 130.332 184.579 129.64 183.328 128.257V136.906H180.257V112.037H183.063L183.212 114.029C184.463 112.48 186.201 111.705 188.425 111.705C190.583 111.705 192.288 112.519 193.538 114.146C194.8 115.772 195.431 118.036 195.431 120.936V121.218ZM192.36 120.869C192.36 118.844 191.928 117.244 191.065 116.071C190.202 114.898 189.017 114.312 187.512 114.312C185.653 114.312 184.258 115.136 183.328 116.785V125.368C184.247 127.006 185.653 127.825 187.545 127.825C189.017 127.825 190.185 127.244 191.048 126.082C191.923 124.909 192.36 123.171 192.36 120.869ZM210.524 130C210.347 129.646 210.203 129.015 210.092 128.107C208.664 129.59 206.96 130.332 204.979 130.332C203.208 130.332 201.753 129.834 200.613 128.838C199.484 127.831 198.919 126.558 198.919 125.02C198.919 123.149 199.628 121.699 201.044 120.67C202.472 119.63 204.475 119.109 207.054 119.109H210.042V117.698C210.042 116.625 209.721 115.772 209.079 115.142C208.438 114.5 207.491 114.179 206.241 114.179C205.145 114.179 204.226 114.455 203.485 115.009C202.743 115.562 202.372 116.232 202.372 117.018H199.285C199.285 116.121 199.6 115.258 200.231 114.428C200.873 113.587 201.736 112.923 202.821 112.436C203.916 111.949 205.117 111.705 206.423 111.705C208.493 111.705 210.114 112.225 211.288 113.266C212.461 114.295 213.069 115.717 213.114 117.532V125.8C213.114 127.449 213.324 128.76 213.745 129.734V130H210.524ZM205.427 127.659C206.39 127.659 207.303 127.41 208.166 126.912C209.03 126.414 209.655 125.767 210.042 124.97V121.284H207.635C203.872 121.284 201.991 122.385 201.991 124.588C201.991 125.551 202.312 126.303 202.954 126.846C203.595 127.388 204.42 127.659 205.427 127.659ZM226.696 114.793C226.231 114.715 225.727 114.677 225.185 114.677C223.171 114.677 221.804 115.535 221.084 117.25V130H218.013V112.037H221.001L221.051 114.112C222.058 112.507 223.486 111.705 225.334 111.705C225.932 111.705 226.386 111.783 226.696 111.938V114.793ZM232.957 130H229.885V112.037H232.957V130ZM229.636 107.272C229.636 106.774 229.786 106.354 230.084 106.011C230.394 105.668 230.848 105.496 231.446 105.496C232.043 105.496 232.497 105.668 232.807 106.011C233.117 106.354 233.272 106.774 233.272 107.272C233.272 107.771 233.117 108.186 232.807 108.518C232.497 108.85 232.043 109.016 231.446 109.016C230.848 109.016 230.394 108.85 230.084 108.518C229.786 108.186 229.636 107.771 229.636 107.272ZM248.431 125.235C248.431 124.405 248.116 123.763 247.485 123.31C246.865 122.845 245.775 122.446 244.214 122.114C242.665 121.782 241.431 121.384 240.512 120.919C239.605 120.454 238.93 119.901 238.487 119.259C238.055 118.617 237.839 117.853 237.839 116.968C237.839 115.496 238.459 114.251 239.699 113.232C240.949 112.214 242.543 111.705 244.48 111.705C246.516 111.705 248.166 112.231 249.427 113.282C250.7 114.334 251.336 115.678 251.336 117.316H248.249C248.249 116.475 247.889 115.75 247.169 115.142C246.461 114.533 245.565 114.229 244.48 114.229C243.362 114.229 242.488 114.472 241.857 114.959C241.226 115.446 240.911 116.082 240.911 116.868C240.911 117.61 241.204 118.169 241.791 118.545C242.377 118.921 243.434 119.281 244.961 119.624C246.5 119.967 247.745 120.377 248.697 120.853C249.649 121.328 250.351 121.904 250.805 122.579C251.27 123.243 251.502 124.057 251.502 125.02C251.502 126.624 250.861 127.914 249.577 128.888C248.293 129.851 246.627 130.332 244.58 130.332C243.141 130.332 241.868 130.077 240.761 129.568C239.654 129.059 238.786 128.351 238.155 127.443C237.535 126.525 237.225 125.534 237.225 124.472H240.296C240.352 125.501 240.761 126.32 241.525 126.929C242.3 127.526 243.318 127.825 244.58 127.825C245.742 127.825 246.671 127.593 247.369 127.128C248.077 126.652 248.431 126.021 248.431 125.235ZM254.775 120.853C254.775 119.093 255.118 117.51 255.804 116.104C256.502 114.699 257.464 113.614 258.693 112.851C259.933 112.087 261.344 111.705 262.926 111.705C265.372 111.705 267.348 112.552 268.853 114.245C270.369 115.938 271.128 118.191 271.128 121.002V121.218C271.128 122.966 270.79 124.538 270.115 125.933C269.451 127.316 268.493 128.395 267.243 129.17C266.003 129.945 264.575 130.332 262.96 130.332C260.525 130.332 258.549 129.485 257.033 127.792C255.528 126.099 254.775 123.857 254.775 121.068V120.853ZM257.863 121.218C257.863 123.21 258.322 124.809 259.241 126.016C260.17 127.222 261.41 127.825 262.96 127.825C264.52 127.825 265.76 127.216 266.678 125.999C267.597 124.771 268.056 123.055 268.056 120.853C268.056 118.882 267.586 117.289 266.645 116.071C265.715 114.843 264.476 114.229 262.926 114.229C261.41 114.229 260.187 114.832 259.257 116.038C258.328 117.244 257.863 118.971 257.863 121.218ZM277.969 112.037L278.069 114.295C279.441 112.568 281.234 111.705 283.448 111.705C287.244 111.705 289.159 113.847 289.192 118.13V130H286.121V118.113C286.11 116.818 285.811 115.861 285.224 115.241C284.649 114.621 283.747 114.312 282.518 114.312C281.522 114.312 280.648 114.577 279.895 115.108C279.143 115.64 278.556 116.337 278.135 117.2V130H275.064V112.037H277.969ZM318.946 108.451H311.176V130H308.006V108.451H300.253V105.828H318.946V108.451ZM319.662 120.853C319.662 119.093 320.005 117.51 320.691 116.104C321.388 114.699 322.351 113.614 323.58 112.851C324.819 112.087 326.231 111.705 327.813 111.705C330.259 111.705 332.235 112.552 333.74 114.245C335.256 115.938 336.014 118.191 336.014 121.002V121.218C336.014 122.966 335.677 124.538 335.002 125.933C334.338 127.316 333.38 128.395 332.13 129.17C330.89 129.945 329.462 130.332 327.846 130.332C325.412 130.332 323.436 129.485 321.92 127.792C320.414 126.099 319.662 123.857 319.662 121.068V120.853ZM322.75 121.218C322.75 123.21 323.209 124.809 324.128 126.016C325.057 127.222 326.297 127.825 327.846 127.825C329.407 127.825 330.647 127.216 331.565 125.999C332.484 124.771 332.943 123.055 332.943 120.853C332.943 118.882 332.473 117.289 331.532 116.071C330.602 114.843 329.363 114.229 327.813 114.229C326.297 114.229 325.074 114.832 324.144 116.038C323.215 117.244 322.75 118.971 322.75 121.218ZM339.137 120.853C339.137 119.093 339.481 117.51 340.167 116.104C340.864 114.699 341.827 113.614 343.055 112.851C344.295 112.087 345.706 111.705 347.289 111.705C349.735 111.705 351.71 112.552 353.216 114.245C354.732 115.938 355.49 118.191 355.49 121.002V121.218C355.49 122.966 355.152 124.538 354.477 125.933C353.813 127.316 352.856 128.395 351.605 129.17C350.366 129.945 348.938 130.332 347.322 130.332C344.887 130.332 342.912 129.485 341.395 127.792C339.89 126.099 339.137 123.857 339.137 121.068V120.853ZM342.225 121.218C342.225 123.21 342.685 124.809 343.603 126.016C344.533 127.222 345.773 127.825 347.322 127.825C348.883 127.825 350.122 127.216 351.041 125.999C351.959 124.771 352.419 123.055 352.419 120.853C352.419 118.882 351.948 117.289 351.008 116.071C350.078 114.843 348.838 114.229 347.289 114.229C345.773 114.229 344.55 114.832 343.62 116.038C342.69 117.244 342.225 118.971 342.225 121.218ZM362.763 130H359.692V104.5H362.763V130Z" fill="#1C141F"/>
<mask id="mask0" mask-type="alpha" maskUnits="userSpaceOnUse" x="30" y="0" width="300" height="82">
<path d="M91 28.5305C91 26.3754 90.4634 24.0438 89.3901 21.5341C88.3168 19.0243 86.6265 16.5613 84.3209 14.145C82.0171 11.7234 79.077 9.76374 75.5006 8.26412C71.9242 6.76451 67.7553 6.01038 62.992 6C59.3789 6 56.0962 6.33902 53.1439 7.01704C50.3086 7.64664 47.5923 8.71384 45.0927 10.1806C42.5826 11.6975 40.3399 13.6088 38.4503 15.8383C36.6114 18.0142 35.0592 20.4115 33.8286 22.9732C32.5351 25.6559 31.5702 28.4838 30.9567 31.3931C30.3047 34.5221 29.9848 37.7116 30.0006 40.9063C30.0006 46.3547 30.8011 51.2341 32.404 55.5461C34.0069 59.8581 36.3003 63.544 39.2876 66.6055C42.2469 69.648 45.8286 72.0315 49.793 73.5968C53.8728 75.2106 58.2323 76.027 62.6267 75.9993C68.1661 75.9993 73.0971 74.9044 77.4216 72.713C81.7462 70.5215 85.0603 67.8198 87.3624 64.6078C89.6663 61.3906 90.8182 58.3499 90.8165 55.4873C90.8235 53.9392 90.2221 52.45 89.1366 51.3361C88.0162 50.1357 86.6632 49.5355 85.0761 49.5355C83.3036 49.5355 81.9734 49.9506 81.0854 50.7826C80.1974 51.6146 79.2063 53.045 78.1138 55.0774C76.3082 58.4329 74.1844 60.9426 71.7424 62.6048C69.3005 64.267 66.2905 65.099 62.7123 65.099C57.0174 65.099 52.4831 62.9594 49.1078 58.6785C45.7324 54.3976 44.0439 48.3179 44.0386 40.4375C44.0386 35.1724 44.785 30.7912 46.2778 27.2921C47.7706 23.793 49.8874 21.1847 52.6265 19.4637C55.3638 17.734 58.5679 16.8726 62.2404 16.8778C66.2223 16.8778 69.5907 17.8551 72.3437 19.8096C75.0968 21.7641 77.1752 24.6353 78.5753 28.4233C79.1661 30.2083 79.8968 31.663 80.769 32.7872C81.6413 33.9115 83.0397 34.4737 84.9642 34.4719C86.5549 34.4961 88.0879 33.8787 89.2101 32.763C90.4057 31.6353 91.0017 30.2256 91 28.5305Z" fill="#E93E32"/>
<path d="M243 29.5305C243 27.3754 242.463 25.0438 241.39 22.5341C240.317 20.0243 238.627 17.5613 236.321 15.145C234.017 12.7234 231.077 10.7637 227.501 9.26412C223.924 7.76451 219.755 7.01038 214.992 7C211.379 7 208.096 7.33901 205.144 8.01704C202.309 8.64664 199.592 9.71384 197.093 11.1806C194.583 12.6975 192.34 14.6088 190.45 16.8383C188.611 19.0142 187.059 21.4115 185.829 23.9731C184.535 26.6558 183.57 29.4838 182.957 32.3931C182.305 35.5221 181.985 38.7116 182.001 41.9063C182.001 47.3547 182.801 52.2341 184.404 56.5461C186.007 60.8581 188.3 64.544 191.288 67.6055C194.247 70.648 197.827 73.0315 201.789 74.5968C205.869 76.2106 210.229 77.027 214.623 76.9993C220.161 76.9993 225.092 75.9044 229.418 73.713C233.744 71.5215 237.057 68.8198 239.359 65.6078C241.661 62.3906 242.813 59.3499 242.813 56.4873C242.82 54.9392 242.219 53.45 241.133 52.3361C240.013 51.1357 238.658 50.5355 237.073 50.5355C235.298 50.5355 233.968 50.9506 233.082 51.7826C232.196 52.6146 231.206 54.045 230.11 56.0774C228.305 59.4329 226.181 61.9426 223.739 63.6048C221.297 65.267 218.287 66.099 214.709 66.099C209.014 66.099 204.48 63.9594 201.104 59.6785C197.729 55.3976 196.04 49.3179 196.035 41.4375C196.035 36.1724 196.782 31.7912 198.274 28.2921C199.767 24.793 201.882 22.1847 204.621 20.4637C207.36 18.734 210.566 17.8726 214.235 17.8778C218.217 17.8778 221.585 18.8551 224.339 20.8096C227.092 22.7641 229.17 25.6353 230.57 29.4233C231.161 31.2083 231.892 32.663 232.764 33.7872C233.636 34.9115 235.034 35.4737 236.959 35.4719C238.555 35.5048 240.095 34.8925 241.226 33.7769C242.409 32.6405 243 31.2256 243 29.5305Z" fill="#E65297"/>
<path d="M249.074 29.9609C251.431 23.927 253.45 30.2964 253.787 30.6318C254.124 30.9673 259.536 32.6021 259.536 32.6021C260.048 29.8195 260.935 27.1198 262.175 24.5757C262.388 24.1432 262.615 23.7249 262.849 23.3107C261.45 22.2174 258.497 21.587 258.497 21.587C256.14 23.2622 255.129 22.5973 256.477 19.5662C257.825 16.5351 258.834 18.8973 259.171 19.9017C259.508 20.906 262.544 21.2455 263.634 22.0214C265.116 19.7178 266.994 17.693 269.178 16.0339C268.827 14.3406 267.609 9.07247 265.916 8.5107C263.886 7.84183 259.855 6.50005 265.916 3.14763C271.977 -0.204794 268.604 5.82512 268.604 6.83146C268.604 7.83779 272.972 13.5343 273.065 13.601C275.451 12.4188 277.992 11.5802 280.613 11.1094C280.909 9.45237 281.258 6.35658 280.052 5.15626C278.368 3.47903 283.418 2.47472 282.409 4.14588C281.4 5.81704 283.262 10.7153 283.262 10.7153C284.699 10.5678 286.142 10.4971 287.587 10.5032C289.41 10.5011 291.231 10.6305 293.034 10.8911C293.913 10.2526 295.194 7.51851 295.194 4.15801C295.194 0.797501 294.179 -1.20506 300.581 0.805584C306.983 2.81623 299.16 4.34189 298.224 5.16434C296.994 6.2515 296.296 9.71507 296.564 11.6126C297.565 11.8793 298.549 12.2026 299.513 12.5825C301.419 13.3322 303.226 14.3103 304.893 15.4964L304.917 15.4964C304.917 15.4964 307.663 13.5343 307.663 12.1945C307.663 10.9821 307.663 7.83779 310.357 10.5193C313.051 13.2009 309.088 13.0251 308.337 13.5363C307.586 14.0476 306.713 16.917 306.713 16.917C307.312 17.4384 307.883 17.988 308.425 18.566C309.578 19.8107 310.599 21.1707 311.47 22.6256C314.92 21.2899 319.536 18.5841 319.768 17.887C320.105 16.8766 320.783 12.5239 325.829 17.2161C330.876 21.9083 322.462 21.9103 320.777 21.9103C319.092 21.9103 313.778 27.4411 313.778 27.4411L313.778 27.4552C313.853 27.6573 313.934 27.8594 314.005 28.0615C314.541 29.6235 314.959 31.2239 315.259 32.8486C317.241 33.2245 319.711 33.5539 320.107 32.9658C320.779 31.9554 322.801 30.9451 323.472 34.3056C324.144 37.6661 321.79 36.3263 320.442 35.6473C319.293 35.0735 316.467 35.421 315.667 35.5342C315.846 37.1286 315.935 38.731 315.933 40.3355C315.933 41.3661 315.899 42.3805 315.828 43.3787C318.808 44.3406 323.909 45.939 324.15 45.7026C324.487 45.3672 331.895 40.675 329.538 49.055C327.508 56.2469 324.004 51.3425 323.042 49.8067C322.87 49.5299 322.606 49.3238 322.295 49.2207C319.262 48.2326 316.938 48.0608 315.154 48.3983C314.878 49.7825 314.518 51.1485 314.08 52.4903C313.211 55.1981 311.924 57.7564 310.266 60.0701C311.078 62.1495 312.231 64.6734 313.031 64.4754C314.378 64.1399 317.072 64.4754 314.045 67.8258C311.019 71.1762 310.004 66.8154 310.678 65.805C311.185 65.0472 309.019 63.5317 307.919 62.8284C305.55 65.1988 302.716 67.0599 299.597 68.2966C297.873 68.9897 296.087 69.5111 294.262 69.8566C294.158 71.6046 294.57 73.5808 294.881 74.7751C295.045 75.4217 295.51 75.9492 296.129 76.2018C301.129 78.1983 299.86 80.9445 293.176 81.8962C286.106 82.9066 290.819 76.1977 291.146 74.5205C291.473 72.8433 289.82 70.5194 289.82 70.5194L289.628 70.4467C288.878 70.4891 288.123 70.5194 287.348 70.5194C282.831 70.5194 278.816 69.8263 275.302 68.4421C273.646 69.5151 273.1 73.3161 273.116 74.5629C273.116 75.155 273.043 77.2121 269.736 75.4218C267.026 73.9567 268.041 72.7443 269.259 72.138C270.018 71.7602 273.019 69.7131 273.37 68.1491C273.417 67.8399 273.303 67.5267 273.069 67.3165C270.79 65.4473 268.084 64.3379 266.149 62.204C265.068 61.0057 264.103 59.7064 263.269 58.3242C261.065 58.9931 259.506 60.8016 259.506 60.8016C259.169 67.5065 253.781 66.1647 251.761 59.4598C249.742 52.755 258.154 57.7887 258.501 58.1181C258.787 58.401 261.245 56.5217 261.992 55.9397C261.483 54.8748 261.04 53.7795 260.667 52.66C259.449 48.9924 258.84 44.9145 258.84 40.4264C258.838 38.7775 258.927 37.1306 259.108 35.4917C257.415 34.2975 254.183 32.889 252.778 33.3134C250.714 33.9438 246.715 35.9949 249.074 29.9609ZM280.266 13.0008C279.557 12.9988 278.983 13.5707 278.981 14.2759L278.981 14.2779C278.981 14.9832 279.555 15.555 280.264 15.555L280.266 15.555C280.974 15.5571 281.548 14.9852 281.55 14.2799C281.55 14.2779 281.55 14.2779 281.55 14.2759C281.548 13.5707 280.974 12.9988 280.266 13.0008ZM287.652 13.6394C286.944 13.6414 286.37 14.2133 286.37 14.9185C286.372 15.6237 286.946 16.1956 287.654 16.1976C288.365 16.1976 288.939 15.6258 288.939 14.9185C288.941 14.2133 288.367 13.6414 287.659 13.6394C287.656 13.6394 287.654 13.6394 287.652 13.6394ZM293.434 12.6795C292.725 12.6815 292.151 13.2534 292.149 13.9586C292.149 14.6659 292.723 15.2378 293.434 15.2378C294.142 15.2398 294.717 14.6679 294.719 13.9627C294.719 13.9607 294.719 13.9607 294.719 13.9586C294.719 13.2514 294.142 12.6795 293.434 12.6795ZM296.647 16.5189C295.939 16.5169 295.364 17.0888 295.362 17.794C295.362 17.796 295.362 17.796 295.362 17.7981C295.36 18.5033 295.935 19.0752 296.643 19.0772C296.645 19.0772 296.645 19.0772 296.647 19.0772C297.358 19.0812 297.936 18.5134 297.94 17.8061C297.94 17.8021 297.94 17.8001 297.94 17.796C297.94 17.0888 297.366 16.5169 296.655 16.5169C296.653 16.5169 296.649 16.5169 296.647 16.5169L296.647 16.5189ZM303.39 20.0371C302.503 20.0371 301.785 20.7524 301.785 21.6355C301.785 22.5185 302.503 23.2339 303.39 23.2339C304.278 23.2339 304.996 22.5185 304.998 21.6355C304.998 20.7524 304.278 20.035 303.39 20.035L303.39 20.0371ZM311.104 39.8606C311.991 39.8606 312.71 39.1453 312.71 38.2622C312.71 37.3791 311.991 36.6638 311.104 36.6618C310.217 36.6638 309.498 37.3791 309.498 38.2622C309.5 39.1432 310.215 39.8566 311.1 39.8586L311.104 39.8606ZM307.887 27.0733C308.595 27.0713 309.17 26.4994 309.172 25.7942C309.174 25.0869 308.601 24.513 307.891 24.511C307.889 24.511 307.889 24.511 307.887 24.511C307.178 24.509 306.604 25.0808 306.602 25.7861C306.602 25.7881 306.602 25.7881 306.602 25.7901C306.6 26.4974 307.172 27.0713 307.883 27.0733C307.883 27.0733 307.885 27.0733 307.887 27.0733ZM305.317 50.413C306.204 50.413 306.922 49.6976 306.922 48.8145C306.922 47.9315 306.204 47.2161 305.317 47.2161C304.43 47.2161 303.711 47.9315 303.711 48.8145C303.713 49.6956 304.434 50.4109 305.319 50.4089L305.317 50.413ZM276.758 63.0305C277.137 63.5094 277.834 63.5923 278.315 63.2164C278.796 62.8385 278.879 62.1434 278.5 61.6645C278.12 61.1856 277.424 61.1027 276.943 61.4806C276.466 61.8585 276.382 62.5496 276.76 63.0265L276.758 63.0305ZM272.008 56.0832C272.349 56.5136 272.976 56.5884 273.411 56.2489C273.845 55.9094 273.92 55.283 273.579 54.8505C273.236 54.4201 272.609 54.3453 272.174 54.6848C271.742 55.0243 271.669 55.6487 272.01 56.0791L272.008 56.0832ZM273.053 51.9528C274.553 55.093 276.569 57.4149 279.1 58.9203C281.613 60.4197 284.494 61.1997 287.423 61.1775C289.656 61.2017 291.871 60.7552 293.919 59.8701C295.943 58.9627 297.735 57.6169 299.168 55.9316C300.693 54.1796 301.872 51.9689 302.708 49.2995C303.545 46.6301 303.963 43.6475 303.961 40.3516C303.961 37.078 303.543 34.1277 302.708 31.5028C301.874 28.8778 300.733 26.7217 299.288 25.0364C297.881 23.3774 296.113 22.0578 294.118 21.1768C293.495 20.904 292.853 20.6736 292.199 20.4877C292.364 20.2674 292.453 20.0007 292.453 19.7259C292.451 19.0206 291.877 18.4487 291.168 18.4467C290.458 18.4467 289.883 19.0186 289.883 19.7259C289.883 19.8208 289.895 19.9158 289.916 20.0088C289.144 19.8996 288.367 19.8431 287.587 19.839C284.273 19.839 281.337 20.6372 278.778 22.2336C276.218 23.83 274.249 26.1882 272.871 29.3062C271.492 32.4202 270.804 36.102 270.804 40.3516C270.808 44.9408 271.559 48.8065 273.055 51.9487L273.053 51.9528ZM271.271 19.2389C271.271 18.6205 270.768 18.1194 270.146 18.1194C269.525 18.1194 269.022 18.6205 269.022 19.2389C269.022 19.8572 269.525 20.3583 270.146 20.3583C270.768 20.3604 271.271 19.8592 271.273 19.2409C271.273 19.2389 271.273 19.2368 271.273 19.2348L271.271 19.2389ZM268.084 59.1931C268.464 59.672 269.162 59.7569 269.643 59.379C270.124 59.0011 270.207 58.306 269.828 57.8271C269.448 57.3482 268.752 57.2653 268.271 57.6432C267.794 58.0211 267.71 58.7102 268.086 59.1891L268.084 59.1931ZM268.38 32.1878C269.089 32.1878 269.663 31.6159 269.663 30.9107L269.663 30.9087C269.663 30.2034 269.089 29.6316 268.38 29.6295C267.67 29.6295 267.095 30.2014 267.095 30.9087C267.097 31.6139 267.672 32.1858 268.38 32.1838L268.382 32.1838L268.38 32.1878ZM267.737 24.509C267.735 23.8037 267.162 23.2339 266.454 23.2339C265.743 23.2339 265.169 23.8057 265.169 24.513C265.171 25.2183 265.746 25.7901 266.454 25.7921C267.164 25.7921 267.739 25.2203 267.739 24.513C267.739 24.511 267.739 24.511 267.737 24.509ZM264.124 49.0207C264.507 49.5077 265.214 49.5905 265.703 49.2086C266.19 48.8267 266.273 48.1214 265.89 47.6364C265.508 47.1515 264.804 47.0666 264.316 47.4465C264.314 47.4485 264.314 47.4485 264.312 47.4505C263.823 47.8304 263.74 48.5337 264.124 49.0207C264.124 49.0207 264.126 49.0207 264.126 49.0227L264.124 49.0207ZM265.169 40.8144C265.877 40.8164 266.452 40.2445 266.454 39.5393C266.454 39.5373 266.454 39.5373 266.454 39.5353C266.454 38.83 265.879 38.2582 265.171 38.2582L265.169 38.2582C264.461 38.2582 263.886 38.83 263.884 39.5353C263.884 40.2405 264.459 40.8144 265.169 40.8144ZM263.243 32.1818C263.949 32.1818 264.521 31.6159 264.528 30.9127C264.526 30.2075 263.951 29.6356 263.243 29.6336C262.532 29.6336 261.958 30.2055 261.958 30.9127C261.96 31.6159 262.534 32.1838 263.243 32.1818Z" fill="#2697C2"/>
<path d="M176.78 52.0404C174.421 58.0743 172.401 51.7049 172.064 51.3695C171.727 51.034 166.315 49.3993 166.315 49.3993C165.804 52.1818 164.917 54.8816 163.676 57.4257C163.463 57.8581 163.236 58.2764 163.002 58.6907C164.401 59.7839 167.355 60.4144 167.355 60.4144C169.711 58.7392 170.722 59.404 169.385 62.4351C168.047 65.4662 167.028 63.104 166.691 62.0997C166.354 61.0954 163.321 60.7579 162.237 59.986C160.755 62.2896 158.878 64.3144 156.693 65.9734C157.045 67.6668 158.263 72.9349 159.956 73.4967C161.985 74.1656 166.017 75.5073 159.956 78.8598C153.894 82.2122 157.262 76.1782 157.262 75.1719C157.262 74.1656 152.885 68.4671 152.796 68.4024C150.409 69.5845 147.863 70.4231 145.239 70.892C144.942 72.549 144.593 75.6448 145.799 76.8451C147.484 78.5223 142.433 79.5266 143.442 77.8555C144.451 76.1843 142.59 71.286 142.59 71.286C141.15 71.4335 139.705 71.5042 138.258 71.4982C136.435 71.5002 134.614 71.3709 132.811 71.1102C131.932 71.7488 130.652 74.4828 130.652 77.8433C130.652 81.2038 131.667 83.2064 125.264 81.1958C118.862 79.1851 126.685 77.6594 127.621 76.837C128.851 75.7498 129.549 72.2863 129.281 70.3888C128.281 70.122 127.296 69.7987 126.332 69.4188C124.426 68.6691 122.619 67.6911 120.953 66.5049H120.928C120.928 66.5049 118.192 68.463 118.192 69.8048C118.192 71.0172 118.192 74.1615 115.498 71.48C112.805 68.7985 116.767 68.9743 117.528 68.463C118.289 67.9518 119.152 65.0823 119.152 65.0823C118.553 64.5609 117.983 64.0113 117.441 63.4334C116.278 62.1906 115.244 60.8286 114.363 59.3737C110.913 60.7094 106.297 63.4152 106.065 64.1123C105.728 65.1227 105.05 69.4754 100.004 64.7832C94.9574 60.091 103.371 60.089 105.056 60.089C106.741 60.089 112.055 54.5582 112.055 54.5582V54.5441C111.98 54.342 111.899 54.1399 111.828 53.9379C111.292 52.3758 110.874 50.7754 110.574 49.1507C108.592 48.7748 106.122 48.4455 105.726 49.0335C105.054 50.0439 103.032 51.0543 102.361 47.6937C101.689 44.3332 104.043 45.673 105.391 46.352C106.54 46.9259 109.366 46.5783 110.166 46.4651C109.987 44.8708 109.898 43.2683 109.9 41.6638C109.9 40.6332 109.934 39.6188 110.005 38.6206C107.025 37.6587 101.924 36.0603 101.683 36.2967C101.346 36.6322 93.9384 41.3243 96.2951 32.9443C98.3251 25.7524 101.829 30.6568 102.791 32.1926C102.963 32.4694 103.227 32.6755 103.538 32.7786C106.571 33.7667 108.895 33.9385 110.679 33.601C110.955 32.2168 111.315 30.8508 111.753 29.509C112.622 26.8012 113.909 24.2429 115.567 21.9292C114.755 19.8498 113.602 17.3259 112.802 17.5239C111.455 17.8594 108.761 17.524 111.788 14.1736C114.814 10.8231 115.829 15.1839 115.155 16.1943C114.648 16.9521 116.814 18.4676 117.916 19.1709C120.285 16.8005 123.117 14.9394 126.239 13.7027C127.962 13.0096 129.748 12.4882 131.573 12.1427C131.677 10.3947 131.265 8.41845 130.964 7.22419C130.8 6.57755 130.335 6.05013 129.716 5.79754C124.716 3.80104 125.985 1.05484 132.669 0.103065C139.742 -0.907303 135.026 5.80158 134.689 7.47881C134.352 9.15603 136.027 11.5041 136.027 11.5041L136.23 11.5769C136.979 11.5344 137.734 11.5041 138.509 11.5041C143.026 11.5041 147.041 12.1973 150.555 13.5815C152.211 12.5085 152.757 8.70742 152.741 7.46062C152.741 6.86854 152.814 4.81142 156.121 6.6018C158.819 8.04664 157.804 9.25909 156.586 9.86531C155.827 10.2432 152.826 12.2902 152.475 13.8543C152.429 14.1634 152.542 14.4767 152.776 14.6868C155.055 16.556 157.761 17.6654 159.696 19.7993C160.778 20.9976 161.742 22.297 162.576 23.6792C164.781 23.0103 166.34 21.2017 166.34 21.2017C166.677 14.4969 172.064 15.8386 174.084 22.5435C176.104 29.2483 167.688 24.2187 167.351 23.8833C167.064 23.6003 164.606 25.4796 163.861 26.0616C164.369 27.1266 164.811 28.2218 165.185 29.3413C166.403 33.009 167.012 37.0868 167.012 41.5749C167.014 43.2238 166.924 44.8708 166.744 46.5096C168.437 47.7038 171.668 49.1123 173.073 48.688C175.137 48.0575 179.136 46.0064 176.78 52.0404ZM145.586 69.0005C146.294 69.0026 146.869 68.4307 146.871 67.7254V67.7234C146.873 67.0182 146.298 66.4463 145.59 66.4443C145.588 66.4443 145.588 66.4443 145.586 66.4443C144.877 66.4423 144.303 67.0141 144.301 67.7194C144.301 67.7214 144.301 67.7214 144.301 67.7234C144.301 68.4287 144.875 69.0005 145.584 69.0005C145.586 69.0005 145.586 69.0005 145.586 69.0005ZM138.199 68.362C138.909 68.362 139.484 67.7901 139.484 67.0828C139.482 66.3776 138.907 65.8057 138.199 65.8037C137.488 65.8037 136.914 66.3756 136.914 67.0828C136.912 67.7881 137.486 68.36 138.195 68.362C138.197 68.362 138.199 68.362 138.199 68.362ZM132.418 69.3218C133.126 69.3198 133.701 68.7479 133.703 68.0427C133.703 67.3354 133.128 66.7636 132.418 66.7636C131.709 66.7615 131.135 67.3334 131.133 68.0387C131.133 68.0407 131.133 68.0407 131.133 68.0427C131.133 68.75 131.709 69.3218 132.418 69.3218ZM129.204 65.4824C129.913 65.4844 130.487 64.9126 130.489 64.2073C130.489 64.2053 130.489 64.2053 130.489 64.2033C130.491 63.498 129.917 62.9262 129.208 62.9241C129.206 62.9241 129.206 62.9241 129.204 62.9241C128.494 62.9241 127.919 63.496 127.919 64.2033C127.917 64.9105 128.492 65.4824 129.202 65.4844H129.204V65.4824ZM122.461 61.9643C123.348 61.9643 124.067 61.2489 124.067 60.3659C124.067 59.4828 123.348 58.7675 122.461 58.7675C121.574 58.7675 120.855 59.4828 120.853 60.3659C120.853 61.2489 121.574 61.9663 122.461 61.9663V61.9643ZM114.747 42.1407C113.86 42.1407 113.141 42.8561 113.141 43.7391C113.141 44.6222 113.86 45.3376 114.747 45.3396C115.634 45.3376 116.353 44.6222 116.353 43.7391C116.351 42.8581 115.636 42.1448 114.751 42.1427L114.747 42.1407ZM117.958 54.93C117.25 54.9321 116.676 55.5039 116.676 56.2092C116.674 56.9144 117.248 57.4863 117.956 57.4883H117.958C118.667 57.4903 119.241 56.9185 119.243 56.2132C119.243 56.2112 119.243 56.2112 119.243 56.2092C119.245 55.5039 118.671 54.93 117.963 54.928L117.958 54.93ZM120.528 31.5904C119.641 31.5904 118.923 32.3057 118.923 33.1888C118.923 34.0719 119.641 34.7872 120.528 34.7872C121.415 34.7872 122.134 34.0719 122.134 33.1888C122.132 32.3078 121.417 31.5944 120.532 31.5924L120.528 31.5904ZM149.087 18.9728C148.708 18.4939 148.011 18.4111 147.53 18.7869C147.049 19.1648 146.966 19.8599 147.346 20.3389C147.725 20.8178 148.422 20.9006 148.903 20.5227C149.384 20.1469 149.469 19.4538 149.091 18.9748L149.087 18.9728ZM153.837 25.9202C153.496 25.4897 152.869 25.415 152.435 25.7545C152 26.094 151.925 26.7204 152.266 27.1528C152.609 27.5832 153.237 27.658 153.671 27.3185C154.105 26.9811 154.182 26.3546 153.841 25.9222L153.837 25.9202ZM152.792 30.0506C151.292 26.9103 149.276 24.5885 146.745 23.083C144.232 21.5836 141.351 20.8036 138.422 20.8259C136.189 20.8016 133.975 21.2482 131.926 22.1333C129.903 23.0406 128.11 24.3864 126.677 26.0717C125.153 27.8237 123.973 30.0344 123.137 32.7038C122.3 35.3732 121.882 38.3559 121.884 41.6517C121.884 44.9253 122.303 47.8756 123.137 50.5006C123.971 53.1255 125.112 55.2817 126.557 56.967C127.964 58.626 129.732 59.9456 131.727 60.8266C132.351 61.0994 132.992 61.3298 133.646 61.5157C133.481 61.7359 133.392 62.0027 133.392 62.2775C133.394 62.9827 133.968 63.5546 134.677 63.5566C135.387 63.5566 135.962 62.9848 135.962 62.2775C135.962 62.1825 135.95 62.0875 135.929 61.9946C136.705 62.0997 137.486 62.1522 138.27 62.1522C141.585 62.1522 144.52 61.354 147.08 59.7576C149.639 58.1612 151.609 55.803 152.987 52.685C154.365 49.571 155.053 45.8892 155.053 41.6396C155.045 37.0565 154.292 33.1949 152.796 30.0526L152.792 30.0506ZM154.574 62.7645C154.574 63.3828 155.078 63.884 155.699 63.884C156.32 63.884 156.823 63.3828 156.823 62.7645C156.823 62.1461 156.32 61.645 155.699 61.645C155.078 61.647 154.576 62.1482 154.578 62.7665L154.574 62.7645ZM157.761 22.8102C157.382 22.3313 156.683 22.2464 156.202 22.6243C155.721 23.0022 155.638 23.6973 156.018 24.1763C156.397 24.6552 157.093 24.738 157.574 24.3601C158.056 23.9843 158.141 23.2932 157.765 22.8123L157.761 22.8102ZM157.465 49.8155C156.756 49.8135 156.182 50.3834 156.18 51.0886C156.18 51.7938 156.754 52.3657 157.463 52.3677C158.173 52.3677 158.748 51.7959 158.748 51.0886C158.744 50.3874 158.173 49.8196 157.469 49.8176L157.465 49.8155ZM158.108 57.4944C158.106 58.1996 158.681 58.7715 159.389 58.7735C159.391 58.7735 159.391 58.7735 159.393 58.7735C160.104 58.7735 160.678 58.2016 160.678 57.4944C160.676 56.7891 160.102 56.2173 159.393 56.2152C158.687 56.2173 158.114 56.7871 158.112 57.4903L158.108 57.4944ZM161.722 32.9827C161.338 32.4957 160.632 32.4128 160.142 32.7948C159.655 33.1767 159.572 33.8819 159.956 34.3669C160.337 34.8519 161.042 34.9368 161.529 34.5569C161.531 34.5548 161.531 34.5548 161.533 34.5528C162.022 34.1749 162.111 33.4717 161.73 32.9847C161.728 32.9827 161.726 32.9807 161.726 32.9786L161.722 32.9827ZM160.678 41.1889C159.97 41.1869 159.395 41.7588 159.393 42.464C159.393 42.4661 159.393 42.4661 159.393 42.4681C159.393 43.1733 159.968 43.7452 160.676 43.7452H160.678C161.387 43.7452 161.961 43.1733 161.963 42.4681C161.965 41.7628 161.391 41.189 160.682 41.1869L160.678 41.1889ZM162.605 49.8216C161.894 49.8216 161.32 50.3935 161.32 51.1007C161.322 51.806 161.896 52.3778 162.605 52.3799C163.315 52.3819 163.892 51.812 163.894 51.1048C163.894 51.0987 163.894 51.0947 163.894 51.0886C163.89 50.3854 163.315 49.8155 162.609 49.8176L162.605 49.8216Z" fill="#E89335"/>
</mask>
<g mask="url(#mask0)">
<rect x="21" y="-1" width="309" height="87" fill="url(#paint0_linear)"/>
</g>
<defs>
<linearGradient id="paint0_linear" x1="21" y1="42.5" x2="330" y2="42.5" gradientUnits="userSpaceOnUse">
<stop stop-color="#E17770"/>
<stop offset="0.317708" stop-color="#EBB06F"/>
<stop offset="0.609375" stop-color="#F074AE"/>
<stop offset="1" stop-color="#2FA9D8"/>
</linearGradient>
</defs>
</svg>
